<svg xmlns="http://www.w3.org/2000/svg" width="1024" height="1024" viewBox="0 0 1024 1024">
  <defs>
    <linearGradient id="g" x1="0" y1="0" x2="1" y2="1">
      <stop offset="0%" stop-color="#3A7BD5"/>
      <stop offset="100%" stop-color="#00D2FF"/>
    </linearGradient>
    <linearGradient id="shine" x1="0" y1="0" x2="0" y2="1">
      <stop offset="0%" stop-color="#FFFFFF" stop-opacity="0.35"/>
      <stop offset="100%" stop-color="#FFFFFF" stop-opacity="0"/>
    </linearGradient>
  </defs>

  <!-- Rounded background -->
  <rect x="64" y="64" width="896" height="896" rx="200" fill="url(#g)"/>
  <!-- Subtle top shine -->
  <rect x="64" y="64" width="896" height="280" rx="200" fill="url(#shine)"/>

  <!-- Dream moon (crescent) -->
  <g transform="translate(680 200)">
    <circle cx="0" cy="0" r="90" fill="#FFF8"/>
    <circle cx="28" cy="-10" r="90" fill="url(#g)"/>
    <circle cx="-55" cy="60" r="6" fill="#FFF"/>
    <circle cx="-15" cy="-40" r="8" fill="#FFF"/>
    <circle cx="40" cy="25" r="5" fill="#FFF"/>
  </g>

  <!-- Clapperboard (recorder symbol) -->
  <g transform="translate(212 350)">
    <!-- body -->
    <rect x="0" y="120" width="600" height="300" rx="32" fill="#0B1F33" opacity="0.9"/>
    <!-- top (board) -->
    <g transform="translate(0,60)">
      <rect x="0" y="0" width="600" height="100" rx="24" fill="#16324F"/>
      <g fill="#F2F6FC" opacity="0.9">
        <rect x="20" y="20" width="80" height="24" rx="6"/>
        <rect x="140" y="20" width="80" height="24" rx="6"/>
        <rect x="260" y="20" width="80" height="24" rx="6"/>
        <rect x="380" y="20" width="80" height="24" rx="6"/>
        <rect x="500" y="20" width="80" height="24" rx="6"/>
      </g>
    </g>
    <!-- red rec dot -->
    <circle cx="540" cy="270" r="22" fill="#FF4D4F"/>
  </g>

  <!-- Subtle foreground glow -->
  <ellipse cx="512" cy="820" rx="360" ry="40" fill="#000" opacity="0.12"/>
</svg>


